          <svg width="24" height="22" viewBox="0 0 24 22" fill="none" xmlns="http://www.w3.org/2000/svg">
              <g filter="url(#filter0_d)">
                <path
                  d="M19.8201 9.24615C19.7833 9.16795 19.7643 9.08329 19.7643 8.99767C19.7643 8.91206 19.7833 8.8274 19.8201 8.74919L20.4032 7.54005C20.5245 7.28577 20.5495 6.99976 20.4742 6.73006C20.3989 6.46036 20.2278 6.22339 19.9897 6.05895L18.8545 5.27633C18.7811 5.2262 18.7197 5.16193 18.6745 5.08773C18.6292 5.01354 18.6011 4.93112 18.5919 4.84589L18.4492 3.52719C18.4189 3.24919 18.2881 2.98959 18.0791 2.79215C17.8701 2.5947 17.5955 2.47149 17.3016 2.44326L15.91 2.30631C15.8179 2.30023 15.7283 2.27541 15.6473 2.23354C15.5663 2.19166 15.4958 2.13373 15.4406 2.06369L14.6135 0.991511C14.4396 0.765724 14.1888 0.603536 13.9033 0.532261C13.6179 0.460987 13.3151 0.484981 13.0462 0.600203L11.7724 1.13434C11.6902 1.17069 11.6006 1.18953 11.5098 1.18953C11.4191 1.18953 11.3294 1.17069 11.2472 1.13434L9.96934 0.586507C9.70074 0.471048 9.39824 0.446931 9.113 0.518236C8.82777 0.589541 8.57733 0.75189 8.40405 0.977815L7.57695 2.05C7.52397 2.11947 7.45604 2.17752 7.37763 2.22035C7.29922 2.26318 7.21211 2.28981 7.12204 2.29848L5.72837 2.43544C5.43475 2.46373 5.16043 2.58702 4.95173 2.78449C4.74303 2.98197 4.61274 3.24153 4.58284 3.51936L4.43809 4.83807C4.43167 4.9252 4.40544 5.00999 4.36119 5.08665C4.31693 5.1633 4.25571 5.23001 4.18169 5.2822L3.04856 6.06482C2.80979 6.22878 2.63822 6.46575 2.56286 6.73564C2.4875 7.00553 2.51299 7.29177 2.63501 7.54592L3.19951 8.74919C3.23792 8.82699 3.25783 8.91181 3.25783 8.99767C3.25783 9.08354 3.23792 9.16836 3.19951 9.24615L2.62053 10.4553C2.49876 10.7098 2.47341 10.9962 2.54873 11.2664C2.62406 11.5365 2.79547 11.7738 3.03409 11.9384L4.16722 12.721C4.24063 12.7711 4.30199 12.8354 4.34725 12.9096C4.39252 12.9838 4.42066 13.0662 4.42982 13.1514L4.57457 14.4682C4.60439 14.7462 4.73461 15.006 4.94328 15.2038C5.15195 15.4016 5.4263 15.5253 5.7201 15.554L7.11377 15.689C7.20586 15.6951 7.29547 15.7199 7.37648 15.7618C7.45749 15.8037 7.52799 15.8616 7.58315 15.9317L8.41025 17.0058C8.58404 17.2311 8.83448 17.393 9.11951 17.4643C9.40455 17.5355 9.70681 17.5118 9.97555 17.3971L11.2534 16.8551C11.3361 16.8203 11.4255 16.8023 11.516 16.8023C11.6065 16.8023 11.696 16.8203 11.7786 16.8551L13.0503 17.4128C13.3193 17.5276 13.6219 17.5514 13.9073 17.4801C14.1927 17.4089 14.4435 17.2469 14.6177 17.0214L15.4448 15.9473C15.4977 15.8778 15.5657 15.8198 15.6441 15.7769C15.7225 15.7341 15.8096 15.7075 15.8997 15.6988L17.2913 15.5638C17.5853 15.5352 17.8599 15.4116 18.0689 15.2138C18.278 15.016 18.4086 14.7562 18.4389 14.4779L18.5816 13.1612C18.588 13.0741 18.6142 12.9893 18.6585 12.9126C18.7027 12.836 18.7639 12.7693 18.838 12.7171L19.9732 11.9344C20.2115 11.7697 20.3826 11.5324 20.4579 11.2623C20.5332 10.9923 20.5081 10.706 20.3867 10.4514L19.8201 9.24615Z"
                  fill="#00D8FD"
                />
                <path
                  d="M13.5793 18C13.3269 17.9997 13.0775 17.949 12.8473 17.8513L11.5694 17.3093C11.5535 17.3026 11.5362 17.2991 11.5187 17.2991C11.5013 17.2991 11.484 17.3026 11.4681 17.3093L10.1902 17.8513C9.81172 18.0104 9.38699 18.0419 8.98695 17.9404C8.5869 17.8389 8.23577 17.6106 7.99218 17.2937L7.16921 16.2195C7.15877 16.206 7.14547 16.1947 7.13017 16.1863C7.11487 16.1779 7.09789 16.1725 7.0803 16.1706L5.6825 16.0435C5.26838 16.0032 4.88161 15.829 4.58743 15.5502C4.29324 15.2715 4.10964 14.9053 4.06758 14.5134L3.9249 13.1947C3.92393 13.1782 3.91939 13.162 3.91156 13.1472C3.90374 13.1324 3.8928 13.1193 3.87941 13.1086L2.74421 12.326C2.41219 12.0956 2.17296 11.765 2.06586 11.3888C1.95875 11.0126 1.99015 10.6131 2.1549 10.256L2.72767 9.04687C2.73485 9.03146 2.73855 9.0148 2.73855 8.99796C2.73855 8.98111 2.73485 8.96446 2.72767 8.94904L2.1549 7.74186C1.98749 7.38361 1.95466 6.98195 2.06186 6.6036C2.16907 6.22526 2.40985 5.89301 2.74421 5.66206L3.87941 4.87944C3.8937 4.86955 3.90567 4.85697 3.91456 4.84249C3.92346 4.82801 3.92909 4.81195 3.9311 4.79531L4.06758 3.48443C4.11009 3.09288 4.29389 2.72715 4.58803 2.44883C4.88218 2.17051 5.26869 1.99659 5.6825 1.95637L7.0741 1.82137C7.09227 1.82098 7.11015 1.81695 7.12655 1.80952C7.14295 1.8021 7.15749 1.79147 7.16921 1.77832L7.99632 0.704182C8.23978 0.390466 8.58873 0.164391 8.98589 0.0630656C9.38304 -0.0382598 9.8048 -0.00881472 10.1819 0.146568L11.4577 0.688529C11.474 0.695321 11.4916 0.698828 11.5094 0.698828C11.5272 0.698828 11.5448 0.695321 11.5611 0.688529L12.839 0.146568C13.2176 -0.0118382 13.6421 -0.0429029 14.042 0.0585346C14.4418 0.159972 14.793 0.387805 15.037 0.704182L15.8641 1.77832C15.8746 1.79184 15.8879 1.80317 15.9032 1.81159C15.9185 1.82 15.9355 1.82533 15.9531 1.82724L17.3467 1.96224C17.7585 2.00349 18.1428 2.17712 18.4356 2.45415C18.7283 2.73117 18.9118 3.09483 18.9554 3.48443L19.0981 4.80118C19.1001 4.81782 19.1058 4.83388 19.1147 4.84836C19.1236 4.86284 19.1355 4.87542 19.1498 4.88531L20.2829 5.66792C20.6176 5.89864 20.8586 6.23089 20.9659 6.60933C21.0731 6.98776 21.0401 7.38954 20.8723 7.74773L20.2995 8.95491C20.2923 8.97033 20.2886 8.98698 20.2886 9.00383C20.2886 9.02067 20.2923 9.03733 20.2995 9.05274L20.8723 10.2619C21.0401 10.6201 21.0731 11.0218 20.9659 11.4003C20.8586 11.7787 20.6176 12.111 20.2829 12.3417L19.1415 13.1086C19.1273 13.1185 19.1153 13.1311 19.1064 13.1456C19.0975 13.1601 19.0919 13.1761 19.0898 13.1928L18.9554 14.5134C18.9133 14.9056 18.7294 15.2721 18.4348 15.5508C18.1402 15.8296 17.7529 16.0036 17.3385 16.0435L15.9448 16.1785C15.9272 16.1804 15.9102 16.1857 15.8949 16.1941C15.8796 16.2025 15.8663 16.2139 15.8559 16.2274L15.0288 17.2996C14.8617 17.5152 14.6435 17.6909 14.3918 17.8125C14.1402 17.9341 13.8619 17.9983 13.5793 18ZM9.44375 0.978097C9.32278 0.97847 9.20361 1.00576 9.09585 1.05776C8.98809 1.10976 8.89477 1.18502 8.82342 1.27745L7.99632 2.34768C7.89995 2.47361 7.77635 2.5787 7.63374 2.65595C7.49113 2.7332 7.33278 2.78085 7.16921 2.79572L5.78795 2.93464C5.61233 2.95245 5.44845 3.02662 5.32356 3.14479C5.19866 3.26297 5.12028 3.41804 5.10146 3.58421L4.95878 4.90096C4.94116 5.05434 4.8895 5.20247 4.80718 5.33565C4.72487 5.46883 4.61376 5.58406 4.48113 5.67379L3.35006 6.45641C3.2072 6.55454 3.10437 6.69619 3.05881 6.85757C3.01325 7.01896 3.02775 7.19026 3.09986 7.34272L3.67263 8.54991C3.73912 8.6909 3.77348 8.84356 3.77348 8.99796C3.77348 9.15235 3.73912 9.30501 3.67263 9.446L3.09986 10.6571C3.02735 10.8095 3.01265 10.9809 3.05823 11.1424C3.10382 11.3039 3.20689 11.4455 3.35006 11.5434L4.48113 12.326C4.61403 12.4174 4.72496 12.5344 4.80658 12.6693C4.8882 12.8042 4.93866 12.9539 4.95464 13.1086L5.10146 14.4137C5.11947 14.5803 5.19753 14.736 5.32254 14.8547C5.44754 14.9733 5.61188 15.0476 5.78795 15.0652L7.17955 15.2021C7.34148 15.2186 7.49793 15.2672 7.63867 15.3447C7.77941 15.4223 7.90128 15.527 7.99632 15.6522L8.82342 16.7243C8.9271 16.8596 9.07666 16.957 9.24714 17.0005C9.41762 17.0439 9.59869 17.0307 9.76012 16.963L11.0359 16.4152C11.1853 16.3524 11.347 16.3199 11.5105 16.3199C11.674 16.3199 11.8356 16.3524 11.985 16.4152L13.2629 16.9572C13.4243 17.0248 13.6054 17.038 13.7759 16.9946C13.9464 16.9512 14.0959 16.8537 14.1996 16.7185L15.0267 15.6522C15.1233 15.5264 15.2469 15.4214 15.3895 15.3442C15.532 15.267 15.6903 15.2192 15.8538 15.2041L17.2475 15.0671C17.4218 15.0474 17.5837 14.9717 17.7063 14.8529C17.8289 14.734 17.9049 14.579 17.9216 14.4137L18.0663 13.095C18.0845 12.9425 18.1362 12.7953 18.2181 12.6629C18.3 12.5304 18.4103 12.4157 18.5419 12.326L19.675 11.5434C19.8175 11.4454 19.9202 11.3042 19.966 11.1434C20.0119 10.9825 19.9983 10.8116 19.9273 10.6591L19.3483 9.44796C19.2819 9.3066 19.2476 9.15363 19.2476 8.99893C19.2476 8.84424 19.2819 8.69127 19.3483 8.54991L19.9211 7.34077C19.9917 7.1882 20.0051 7.01741 19.9593 6.85662C19.9134 6.69583 19.8109 6.55465 19.6688 6.45641L18.5419 5.67379C18.4088 5.58261 18.2977 5.46566 18.2161 5.33072C18.1344 5.19578 18.0841 5.04595 18.0684 4.89118L17.9216 3.58421C17.903 3.4176 17.8245 3.26211 17.6991 3.14383C17.5737 3.02555 17.4091 2.95168 17.233 2.93464L15.8393 2.79964C15.678 2.78219 15.5224 2.73296 15.3824 2.65512C15.2424 2.57727 15.1213 2.47254 15.0267 2.34768L14.1996 1.27745C14.0962 1.14243 13.9469 1.04519 13.7767 1.00208C13.6065 0.958967 13.4258 0.972607 13.265 1.04071L11.985 1.58267C11.8356 1.6455 11.674 1.67797 11.5105 1.67797C11.347 1.67797 11.1853 1.6455 11.0359 1.58267L9.75805 1.04071C9.65928 0.998623 9.55206 0.977264 9.44375 0.978097Z"
                  fill="white"
                />
                <path
                  d="M16.1497 6.85527L15.06 5.82417L10.5316 10.109L7.96137 7.67702L6.86959 8.70811L10.5316 12.1731L16.1497 6.85527Z"
                  fill="white"
                />
              </g>
              <defs>
                <filter
                  id="filter0_d"
                  x="0.0115653"
                  y="0"
                  width="23.0045"
                  height="21.9769"
                  filterUnits="userSpaceOnUse"
                  color-interpolation-filters="sRGB"
                >
                  <feFlood flood-opacity="0" result="BackgroundImageFix" />
                  <feColorMatrix
                    in="SourceAlpha"
                    type="matrix"
                    values="0 0 0 0 0 0 0 0 0 0 0 0 0 0 0 0 0 0 127 0"
                  />
                  <feOffset dy="1.98843" />
                  <feGaussianBlur stdDeviation="0.994217" />
                  <feColorMatrix
                    type="matrix"
                    values="0 0 0 0 0.716667 0 0 0 0 0.716667 0 0 0 0 0.716667 0 0 0 0.1 0"
                  />
                  <feBlend
                    mode="normal"
                    in2="BackgroundImageFix"
                    result="effect1_dropShadow"
                  />
                  <feBlend
                    mode="normal"
                    in="SourceGraphic"
                    in2="effect1_dropShadow"
                    result="shape"
                  />
                </filter>
              </defs>
            </svg>